<svg width="129" height="32" viewBox="0 0 129 32" fill="none" xmlns="http://www.w3.org/2000/svg">
<path d="M0 4.79077H8.13678C10.8886 4.79077 12.9674 5.3649 14.373 6.51316C15.7984 7.66141 16.5111 9.3442 16.5111 11.5615C16.5111 13.7788 15.7885 15.4715 14.3433 16.6396C12.8981 17.7878 10.8589 18.3719 8.22586 18.3917H5.34533L4.12778 17.7977L4.09808 17.8274L4.30596 18.9856V24.5091H0V4.79077ZM7.9586 15.1548C8.92867 15.1548 9.70078 15.0261 10.2749 14.7687C10.8688 14.4916 11.2945 14.0857 11.5518 13.5512C11.829 13.0166 11.9676 12.3435 11.9676 11.5318C11.9676 10.7399 11.829 10.0866 11.5518 9.57187C11.2945 9.05713 10.8688 8.67108 10.2749 8.41371C9.70078 8.13655 8.94847 7.99797 8.01799 7.99797H4.30596V15.1548H7.9586Z" fill="white"/>
<path d="M17.9121 8.74772H21.3324L21.838 13.8632H22.1057C22.4427 12.852 22.7996 12.0391 23.1763 11.4245C23.672 10.4727 24.2669 9.72919 24.9608 9.19384C25.6746 8.63867 26.5173 8.36108 27.4888 8.36108H28.2324V12.852H27.2807C26.1505 12.852 25.1194 12.971 24.1875 13.2089C23.2755 13.4469 22.5815 13.7641 22.1057 14.1607V24.5107H17.9121V8.74772Z" fill="white"/>
<path d="M37.325 24.9865C35.5207 24.9865 34.0039 24.6395 32.7746 23.9455C31.5453 23.2515 30.6233 22.2899 30.0087 21.0606C29.394 19.8114 29.0867 18.3442 29.0867 16.6589C29.0867 14.9933 29.4138 13.536 30.0681 12.2869C30.7423 11.0179 31.7039 10.0364 32.9531 9.34246C34.2022 8.6485 35.6893 8.30151 37.4143 8.30151C39.1789 8.30151 40.6759 8.6485 41.9052 9.34246C43.1544 10.0166 44.0962 10.9782 44.7307 12.2274C45.3651 13.4765 45.6824 14.9537 45.6824 16.6589C45.6824 18.3244 45.3552 19.7916 44.7009 21.0606C44.0664 22.3097 43.1147 23.2813 41.8457 23.9752C40.5966 24.6494 39.0897 24.9865 37.325 24.9865ZM37.325 21.9528C38.019 21.9528 38.6337 21.8537 39.169 21.6554C39.7242 21.4571 40.1802 21.1597 40.5371 20.7632C40.8544 20.3468 41.0923 19.8015 41.2509 19.1274C41.4095 18.4334 41.4888 17.6502 41.4888 16.7778V16.4804C41.4888 15.608 41.3996 14.8645 41.2212 14.2498C41.0427 13.6153 40.785 13.0701 40.4479 12.614C40.1108 12.1976 39.6845 11.8804 39.169 11.6623C38.6733 11.4442 38.0686 11.3351 37.3548 11.3351C36.6806 11.3351 36.0858 11.4442 35.5703 11.6623C35.0548 11.8606 34.6186 12.1679 34.2617 12.5843C33.6272 13.3972 33.31 14.6959 33.31 16.4804V16.7778C33.31 18.4433 33.647 19.7222 34.3212 20.6145C34.6781 21.0308 35.1044 21.358 35.6 21.5959C36.1156 21.8339 36.6906 21.9528 37.325 21.9528Z" fill="white"/>
<path d="M78.5877 24.9865C76.8231 24.9865 75.336 24.6494 74.1265 23.9752C72.917 23.2813 72.0049 22.3097 71.3903 21.0606C70.7955 19.7916 70.498 18.3145 70.498 16.6291C70.498 15.0032 70.8351 13.5657 71.5093 12.3166C72.1834 11.0476 73.1351 10.0662 74.3644 9.37221C75.6136 8.65841 77.0511 8.30151 78.6769 8.30151C80.6002 8.30151 82.1468 8.67824 83.3166 9.43169C84.4864 10.1653 85.3985 11.2063 86.0528 12.5545L82.2459 13.8929C81.9882 13.1196 81.5619 12.5347 80.967 12.1382C80.392 11.7218 79.6485 11.5136 78.7364 11.5136C78.1218 11.5136 77.5666 11.6028 77.0709 11.7813C76.595 11.9597 76.1886 12.2373 75.8515 12.614C75.4946 13.0106 75.217 13.5459 75.0187 14.2201C74.8403 14.8942 74.7511 15.6675 74.7511 16.5399V16.7778C74.7511 18.5028 75.1179 19.7916 75.8515 20.6442C76.1886 21.0011 76.6149 21.2886 77.1304 21.5067C77.6657 21.705 78.2308 21.8041 78.8256 21.8041C79.9162 21.8041 80.739 21.6058 81.2942 21.2093C81.8494 20.7929 82.2558 20.1287 82.5136 19.2166L86.2313 20.2873C85.6959 21.8339 84.7938 23.0037 83.5248 23.7968C82.2757 24.5899 80.63 24.9865 78.5877 24.9865Z" fill="white"/>
<path d="M45.8699 31.0165C45.0475 31.0165 44.2734 30.9077 43.5477 30.69V27.4606C44.0315 27.5332 44.4911 27.5695 44.9265 27.5695C45.4829 27.5695 45.9183 27.4848 46.2328 27.3155C46.5714 27.1704 46.8012 26.8922 46.9222 26.4809C47.0673 26.0697 47.1399 25.4892 47.1399 24.7393V8.8335H51.3489V24.5579C51.3489 26.1544 51.1675 27.4243 50.8046 28.3677C50.4418 29.3111 49.8612 29.9885 49.063 30.3997C48.2647 30.8109 47.2004 31.0165 45.8699 31.0165Z" fill="white"/>
<path d="M47.6232 5.94112L47.1631 1.33984L51.3535 1.33984V5.94112H47.6232Z" fill="white"/>
<path fill-rule="evenodd" clip-rule="evenodd" d="M55.1155 22.8748C56.6026 24.2826 58.6548 24.9865 61.272 24.9865C62.8384 24.9865 64.2065 24.7485 65.3763 24.2727C66.566 23.777 67.5078 23.0929 68.2018 22.2205L65.3763 20.1386C64.9996 20.6938 64.4742 21.1399 63.8 21.477C63.1259 21.7942 62.3229 21.9528 61.391 21.9528C59.9634 21.9528 58.8431 21.5166 58.0302 20.6442C57.2173 19.7718 56.8108 18.5821 56.8108 17.0752L56.7968 16.5585L59.1306 17.4619H69.0048V16.3317C69.0048 13.655 68.3406 11.6524 67.0121 10.3239C66.338 9.66962 65.5052 9.17393 64.5138 8.83686C63.5224 8.47996 62.4022 8.30151 61.153 8.30151C59.9832 8.30151 58.8828 8.49979 57.8517 8.89634C56.8405 9.27307 55.9681 9.82824 55.2345 10.5619C54.4811 11.2757 53.9061 12.1679 53.5095 13.2386C53.1129 14.3093 52.9147 15.4791 52.9147 16.7481C52.9147 19.4248 53.6483 21.4671 55.1155 22.8748ZM56.7945 15.4692C56.8654 14.1687 57.2179 13.1575 57.8517 12.4356C58.2285 12.0192 58.6746 11.7218 59.1901 11.5433C59.7255 11.3451 60.3699 11.2459 61.1233 11.2459C61.8569 11.2459 62.4518 11.3451 62.9078 11.5433C63.3837 11.7416 63.7901 12.0291 64.1272 12.4058C64.7815 13.1593 65.1087 14.1804 65.1087 15.4692H56.7945Z" fill="white"/>
<path fill-rule="evenodd" clip-rule="evenodd" d="M92.1672 24.362C92.8017 24.699 93.6642 24.8874 94.7547 24.9271C95.4883 24.9271 96.1922 24.8676 96.8664 24.7486C97.5405 24.6296 98.1452 24.4413 98.6806 24.1835V21.4473H95.9146C95.3595 21.4473 94.9431 21.3283 94.6655 21.0904C94.3879 20.8525 94.2491 20.446 94.2491 19.871V12.0193H95.647H98.859V8.74772H93.461L94.4276 6.81453V3.54297H91.3642L90.2638 8.74772H87.2599V12.0193H89.3715H90.4125V19.9602C90.4323 21.1102 90.5711 22.0421 90.8289 22.7559C91.1064 23.4697 91.5526 24.0051 92.1672 24.362Z" fill="white"/>
<path fill-rule="evenodd" clip-rule="evenodd" d="M109.87 1.33984H107.144V9.51774L113.959 8.15476V4.06581L109.87 1.33984ZM126.226 1.33993H128.952V9.51783L122.137 8.15485V4.0659L126.226 1.33993ZM107.144 9.51793L113.959 8.15494L118.048 12.2439L122.137 8.15494L128.952 9.51793L113.959 24.5107V16.3328L118.048 12.2439H109.87L107.144 9.51793Z" fill="#9E00FF"/>
</svg>
